<svg width="37" height="43" viewBox="0 0 37 43" fill="none" xmlns="http://www.w3.org/2000/svg">
<path fill-rule="evenodd" clip-rule="evenodd" d="M31.1523 30.7532C34.3109 27.4878 36.2562 23.0395 36.2562 18.1403C36.2562 8.12854 28.1331 0 18.1281 0C8.12312 0 0 8.12854 0 18.1403C0 23.4923 2.32127 28.306 6.01 31.6276C6.01037 31.6279 6.01074 31.6283 6.01112 31.6283C10.2152 35.8315 13.7083 39.3238 16.4902 42.1052C17.6167 43.2981 18.6966 43.2985 19.7287 42.1052L30.7878 31.1198C30.8606 31.0488 30.9325 30.977 31.0042 30.9045L31.1564 30.7536L31.1523 30.7532ZM13.8101 11.0891H22.8777C23.1164 11.0891 23.3096 11.2713 23.3096 11.4966V12.311C23.3096 12.5359 23.1164 12.7185 22.8777 12.7185H13.8101C13.5725 12.7185 13.3785 12.5352 13.3785 12.311V11.4966C13.3785 11.2724 13.5725 11.0891 13.8101 11.0891ZM12.083 13.9404H24.1732C25.0367 13.9404 25.4686 14.3478 25.4686 15.1623V20.0504C25.4686 20.8648 24.6253 21.247 24.1732 21.247L12.083 21.2723C11.2195 21.2723 10.7876 20.8648 10.7876 20.0504V15.1623C10.7876 14.3478 11.2195 13.9404 12.083 13.9404ZM8.19661 14.3478C7.72101 14.3478 7.33308 14.7132 7.33308 15.1623V18.421C7.33308 18.8697 7.72101 19.2355 8.19661 19.2355V14.3478ZM28.0596 14.3478V19.2355C28.5367 19.2355 28.9231 18.8697 28.9231 18.421V15.1623C28.9231 14.7132 28.5367 14.3478 28.0596 14.3478ZM12.299 23.3087C13.1334 23.3087 13.8101 23.947 13.8101 24.7343C13.8101 25.5217 13.1334 26.16 12.299 26.16C11.4642 26.16 10.7876 25.5217 10.7876 24.7343C10.7876 23.947 11.4642 23.3087 12.299 23.3087ZM23.9572 23.3087C24.792 23.3087 25.4686 23.947 25.4686 24.7343C25.4686 25.5217 24.792 26.16 23.9572 26.16C23.1228 26.16 22.4461 25.5217 22.4461 24.7343C22.4461 23.947 23.1228 23.3087 23.9572 23.3087ZM12.5146 9.45977C9.68083 9.45977 8.62856 10.3427 8.62856 12.7185V26.16C8.62856 26.7139 8.80051 27.1131 9.0605 27.4079V28.6042C9.0605 29.277 9.64242 29.8261 10.3556 29.8261H12.083C12.7962 29.8261 13.3785 29.277 13.3785 28.6042V28.1967H22.8777V28.6042C22.8777 29.277 23.46 29.8261 24.1732 29.8261H25.9006C26.6138 29.8261 27.1957 29.277 27.1957 28.6042V27.4072C27.4557 27.1131 27.6276 26.7135 27.6276 26.16V13.1255C27.6276 11.3519 27.3945 9.45977 24.6051 9.45977H12.5146Z" fill="#014F9D"/>
</svg>
