<svg width="104" height="33" viewBox="0 0 104 33" fill="none" xmlns="http://www.w3.org/2000/svg">
<g clip-path="url(#clip0)">
<path d="M68.0763 24.7353C67.7861 24.7353 67.5723 24.662 67.4349 24.5154C67.2975 24.3688 67.2288 24.1335 67.2288 23.8094V9.43507C67.2288 9.12654 67.2975 8.89896 67.4349 8.75236C67.5723 8.60576 67.7861 8.53245 68.0763 8.53245H72.1768C75.3839 8.53245 76.9874 9.83637 76.9874 12.4442C76.9874 14.1726 76.3002 15.4457 74.9257 16.2634L74.9487 16.3562C75.7275 16.5876 76.3384 17.035 76.7813 17.6986C77.2241 18.3622 77.4454 19.1878 77.4454 20.1755C77.4454 21.5488 77.0064 22.6521 76.1284 23.4854C75.2502 24.3186 73.9559 24.7353 72.2456 24.7353H68.0763ZM70.6191 15.1293H72.1998C72.6884 15.1293 73.0511 14.9712 73.2877 14.6549C73.5245 14.3384 73.6429 13.8407 73.6429 13.1618C73.6429 12.4982 73.5322 12.0237 73.3107 11.7382C73.0892 11.4528 72.7342 11.3101 72.2456 11.3101H70.6191V15.1293ZM70.6191 21.9344H72.3601C72.9251 21.9344 73.3412 21.7724 73.6084 21.4484C73.8757 21.1243 74.0094 20.592 74.0094 19.8514C74.0094 19.1415 73.8795 18.636 73.6199 18.3351C73.3604 18.0343 72.9405 17.8839 72.3601 17.8839H70.6191V21.9344ZM86.2899 24.9206C84.5642 24.9206 83.2127 24.4884 82.2352 23.6241C81.258 22.76 80.7694 21.5487 80.7694 19.9902V9.22679C80.7694 8.73307 81.2122 8.4862 82.0979 8.4862H83.0142C83.8999 8.4862 84.3428 8.73307 84.3428 9.22679V19.7586C84.3428 20.3914 84.5185 20.9045 84.8699 21.298C85.2211 21.6914 85.6944 21.8882 86.2899 21.8882C86.8703 21.8882 87.3399 21.6875 87.6988 21.2863C88.0577 20.8851 88.2371 20.3759 88.2371 19.7586V9.22679C88.2371 8.73307 88.68 8.4862 89.5659 8.4862H90.4592C91.3451 8.4862 91.788 8.73307 91.788 9.22679V19.9902C91.788 21.5487 91.3032 22.76 90.3334 23.6241C89.3635 24.4884 88.0156 24.9206 86.2899 24.9206ZM99.006 24.9206C98.2576 24.9206 97.5169 24.8087 96.784 24.5849C96.0508 24.3611 95.5163 24.0564 95.1802 23.6707C94.9818 23.3928 94.8826 23.1227 94.8826 22.8603C94.8826 22.4282 94.9971 21.9885 95.2263 21.5411C95.4552 21.0936 95.7072 20.8698 95.9822 20.8698C96.1043 20.8698 96.299 20.947 96.5663 21.1013C96.8335 21.2555 97.0282 21.3635 97.1504 21.4254C97.7459 21.7339 98.2728 21.8882 98.7311 21.8882C99.2197 21.8882 99.6473 21.7725 100.014 21.5411C100.38 21.3096 100.564 20.916 100.564 20.3605C100.564 19.7741 100.388 19.315 100.037 18.9832C99.6855 18.6515 99.1357 18.2851 98.3874 17.8839C97.2421 17.2203 96.406 16.5336 95.8792 15.8236C95.3522 15.1139 95.0887 14.1726 95.0887 12.9998C95.0887 12.0585 95.2949 11.2368 95.7073 10.5346C96.1195 9.83258 96.6884 9.29252 97.4138 8.91439C98.1393 8.53625 98.9678 8.34717 99.8993 8.34717C100.419 8.34717 100.968 8.42822 101.549 8.59033C102.129 8.75226 102.58 8.94901 102.9 9.18054C103.175 9.38124 103.313 9.65127 103.313 9.99064C103.313 10.3919 103.225 10.8162 103.049 11.2638C102.874 11.7114 102.656 11.9352 102.396 11.9352C102.274 11.9352 102.053 11.8734 101.732 11.7499C101.136 11.5183 100.64 11.4026 100.243 11.4026C99.6017 11.4026 99.1625 11.5415 98.9257 11.8194C98.6891 12.0971 98.5708 12.4134 98.5708 12.7682C98.5708 13.3238 98.7159 13.7443 99.006 14.0298C99.2962 14.3152 99.762 14.6277 100.403 14.9673C100.541 15.0289 100.747 15.137 101.022 15.2913C102.076 15.9086 102.835 16.5722 103.301 17.2821C103.767 17.9918 104 18.9254 104 20.0827C104 20.947 103.816 21.7455 103.45 22.4784C103.084 23.2114 102.526 23.8017 101.778 24.2492C101.029 24.6968 100.106 24.9206 99.006 24.9206ZM40.8784 24.8973C40.1455 24.8973 39.5194 24.662 39 24.1913C38.4809 23.7207 38.2213 22.9376 38.2213 21.8419V14.597H37.6257C37.4424 14.597 37.3088 14.5314 37.2247 14.4001C37.1407 14.269 37.0986 14.0568 37.0986 13.7636V13.4628C37.0986 13.1696 37.1407 12.9574 37.2247 12.8261C37.3088 12.695 37.4424 12.6295 37.6257 12.6295H38.2213L38.519 10.2684C38.5495 9.88271 38.8397 9.68986 39.3895 9.68986H39.756C40.3058 9.68986 40.5807 9.88271 40.5807 10.2684V12.6295H41.9093C42.0926 12.6295 42.2224 12.695 42.2988 12.8261C42.3751 12.9574 42.4133 13.1696 42.4133 13.4628V13.7636C42.4133 14.0568 42.3751 14.269 42.2988 14.4001C42.2224 14.5314 42.0926 14.597 41.9093 14.597H40.5807V21.6569C40.5807 22.1351 40.6494 22.4668 40.7869 22.652C40.9243 22.8372 41.1228 22.9298 41.3825 22.9298C41.5352 22.9298 41.6803 22.9105 41.8177 22.8719C41.9551 22.8333 42.0545 22.814 42.1157 22.814C42.2683 22.814 42.3942 22.9799 42.4934 23.3117C42.5928 23.6435 42.6425 23.902 42.6425 24.0872C42.6425 24.3804 42.4515 24.5887 42.0696 24.712C41.6879 24.8355 41.2908 24.8973 40.8784 24.8973ZM48.8984 24.8973C47.8751 24.8973 47.0695 24.5809 46.4815 23.9482C45.8936 23.3156 45.5997 22.4283 45.5997 21.2863C45.5997 19.7895 46.1342 18.7093 47.2031 18.0459C48.2721 17.3824 49.7153 17.0428 51.5328 17.0273V16.1477C51.5328 15.6384 51.3877 15.2257 51.0975 14.9094C50.8073 14.5931 50.3415 14.435 49.7002 14.435C49.2267 14.435 48.8105 14.4929 48.4516 14.6086C48.0928 14.7242 47.7682 14.8553 47.4781 15.0019C47.1879 15.1485 47.0123 15.2218 46.9513 15.2218C46.7831 15.2218 46.5884 15.0444 46.3669 14.6895C46.1456 14.3346 46.035 14.0646 46.035 13.8794C46.035 13.6634 46.2144 13.4473 46.5733 13.2313C46.9322 13.0153 47.4018 12.834 47.9821 12.6874C48.5623 12.5408 49.1655 12.4675 49.7917 12.4675C51.1203 12.4675 52.1321 12.7915 52.827 13.4396C53.522 14.0877 53.8694 14.9827 53.8694 16.1247V21.1243C53.8694 22.1583 53.9152 22.9067 54.0067 23.3696C54.0983 23.8325 54.1441 24.0949 54.1441 24.1567C54.1441 24.3727 53.957 24.527 53.583 24.6195C53.2088 24.7122 52.8613 24.7586 52.5406 24.7586C52.3116 24.7586 52.1437 24.6543 52.0368 24.4459C51.9297 24.2376 51.8227 23.902 51.7158 23.4391C50.9676 24.4112 50.0284 24.8973 48.8984 24.8973ZM49.471 22.8603C50.3262 22.8603 51.0134 22.4746 51.5328 21.7031V18.8098C50.4179 18.8251 49.536 18.9987 48.8869 19.3305C48.2379 19.6623 47.9133 20.2834 47.9133 21.1938C47.9133 22.3048 48.4326 22.8603 49.471 22.8603ZM59.6441 24.7815C58.9416 24.7815 58.5904 24.5887 58.5904 24.203V16.2634C58.5904 15.245 58.5446 14.5043 58.4528 14.0414C58.3613 13.5785 58.3155 13.3162 58.3155 13.2543C58.3155 13.0383 58.5064 12.884 58.8881 12.7915C59.27 12.6988 59.6213 12.6525 59.942 12.6525C60.171 12.6525 60.3351 12.7644 60.4345 12.9881C60.5338 13.2119 60.6101 13.4511 60.6634 13.7057C60.717 13.9604 60.7514 14.134 60.7667 14.2267C61.4386 13.0539 62.1946 12.4675 63.0346 12.4675C63.8134 12.4675 64.2028 12.8069 64.2028 13.4858C64.2028 13.7637 64.1532 14.0801 64.054 14.435C63.9546 14.7898 63.8362 14.9673 63.6987 14.9673C63.6224 14.9673 63.4811 14.9287 63.275 14.8515C63.0689 14.7743 62.8437 14.7357 62.5994 14.7357C62.2328 14.7357 61.8892 14.8901 61.5685 15.1988C61.2478 15.5073 61.034 15.8006 60.9271 16.0784V24.203C60.9271 24.5887 60.5835 24.7815 59.8962 24.7815H59.6441Z" fill="#014F9D"/>
</g>
<path fill-rule="evenodd" clip-rule="evenodd" d="M23.0151 23.6169C25.3487 21.2045 26.7859 17.9181 26.7859 14.2986C26.7859 6.90192 20.7845 0.896606 13.3929 0.896606C6.00131 0.896606 0 6.90192 0 14.2986C0 18.2526 1.71494 21.8089 4.44015 24.2629C4.44043 24.2631 4.4407 24.2634 4.44098 24.2634C7.54695 27.3687 10.1276 29.9488 12.1829 32.0036C13.0151 32.885 13.8129 32.8852 14.5755 32.0036L22.7459 23.8877C22.7996 23.8353 22.8528 23.7822 22.9057 23.7287L23.0181 23.6172L23.0151 23.6169ZM10.2028 9.08918H16.9019C17.0783 9.08918 17.221 9.22376 17.221 9.39019V9.99193C17.221 10.1581 17.0783 10.2929 16.9019 10.2929H10.2028C10.0273 10.2929 9.88397 10.1575 9.88397 9.99193V9.39019C9.88397 9.22458 10.0273 9.08918 10.2028 9.08918ZM8.92688 11.1957H17.859C18.497 11.1957 18.8161 11.4967 18.8161 12.0984V15.7097C18.8161 16.3114 18.193 16.5938 17.859 16.5938L8.92688 16.6124C8.28891 16.6124 7.96978 16.3114 7.96978 15.7097V12.0984C7.96978 11.4967 8.28891 11.1957 8.92688 11.1957ZM6.0556 11.4967C5.70424 11.4967 5.41763 11.7667 5.41763 12.0984V14.5059C5.41763 14.8374 5.70424 15.1077 6.0556 15.1077V11.4967ZM20.7303 11.4967V15.1077C21.0827 15.1077 21.3682 14.8374 21.3682 14.5059V12.0984C21.3682 11.7667 21.0827 11.4967 20.7303 11.4967ZM9.08643 18.1169C9.70291 18.1169 10.2028 18.5885 10.2028 19.1702C10.2028 19.7519 9.70291 20.2234 9.08643 20.2234C8.46968 20.2234 7.96978 19.7519 7.96978 19.1702C7.96978 18.5885 8.46968 18.1169 9.08643 18.1169ZM17.6994 18.1169C18.3162 18.1169 18.8161 18.5885 18.8161 19.1702C18.8161 19.7519 18.3162 20.2234 17.6994 20.2234C17.083 20.2234 16.583 19.7519 16.583 19.1702C16.583 18.5885 17.083 18.1169 17.6994 18.1169ZM9.24572 7.88543C7.15213 7.88543 6.37473 8.5377 6.37473 10.2929V20.2234C6.37473 20.6326 6.50176 20.9276 6.69384 21.1454V22.0292C6.69384 22.5263 7.12376 22.9319 7.65067 22.9319H8.92688C9.45379 22.9319 9.88397 22.5263 9.88397 22.0292V21.7282H16.9019V22.0292C16.9019 22.5263 17.3321 22.9319 17.859 22.9319H19.1352C19.6621 22.9319 20.092 22.5263 20.092 22.0292V21.1449C20.2841 20.9276 20.4111 20.6324 20.4111 20.2234V10.5937C20.4111 9.28334 20.2389 7.88543 18.1781 7.88543H9.24572Z" fill="#014F9D"/>
<defs>
<clipPath id="clip0">
<rect width="70" height="33" fill="white" transform="translate(34)"/>
</clipPath>
</defs>
</svg>
